# xmcd
#
# Track frame offsets:
#	150
#	9619
#	23791
#	37009
#	47069
#	58479
#	71946
#	83268
#	95158
#	106519
#	120062
#	133280
#	148395
#	160251
#	177096
#	192881
#	205409
#	217177
#	230760
#	241353
#	271261
#	284144
#
# Disc length: 3962 seconds
#
# Revision: 1
# Processed by: cddbd v1.5.1PL0 Copyright (c) Steve Scherf et al.
# Submitted via: audiograbber 1.83.01
#
DISCID=520f7816
DTITLE=Country and Western - Alltime Country Hits CD3
DYEAR=1900
DGENRE=Country
TTITLE0=Merl Travis - Sixteen Tons
TTITLE1=Loretta Lynn - Cool Miner압 Doughter
TTITLE2=Kenny Rogers - Ruby Don앖 Take Your Love To Town
TTITLE3=Merle Haggard - Corrina Corrina
TTITLE4=Hoyt Axton - South Bound
TTITLE5=Barbara Fairchild - Teddy Bear Song
TTITLE6=Johnny Lee - Candy Store
TTITLE7=Lee Greenwood - I O U 
TTITLE8=Patsy Cline - I았e Loved And Lost Again
TTITLE9=Johnny Paycheck - I앐 The Only Hell My Mama
TTITLE10=Merle Haggard - That압 The Way Love Goes
TTITLE11=Conway Twitty - Play Guitar Play
TTITLE12=Tammy Wynette - Singing My Song
TTITLE13=Bobby Bear - Sylvia압 Mother
TTITLE14=Kenny Rogers - The Gambler
TTITLE15=Lynn Anderson - Stand By Your Man
TTITLE16=Kenny Rogers - Me And Bobby McGee
TTITLE17=Danny Davis and The Nashville Brass - Blue Bayou
TTITLE18=Conway Twitty - It압 Only Make Believe
TTITLE19=Fifth Dimension - Ode To Billy Joe
TTITLE20=Johnny Cash - Falsom Prison Blues
TTITLE21=Lynn Anderson - Rose Garden
EXTD=
EXTT0=
EXTT1=
EXTT2=
EXTT3=
EXTT4=
EXTT5=
EXTT6=
EXTT7=
EXTT8=
EXTT9=
EXTT10=
EXTT11=
EXTT12=
EXTT13=
EXTT14=
EXTT15=
EXTT16=
EXTT17=
EXTT18=
EXTT19=
EXTT20=
EXTT21=
PLAYORDER=
